<svg xmlns="http://www.w3.org/2000/svg" viewBox="0 0 297.95 185"><defs><style>.cls-1,.cls-2,.cls-3{fill:none;stroke:#000;stroke-miterlimit:10;}.cls-1{stroke-width:8.3px;}.cls-2{stroke-width:1.05px;}.cls-3{stroke-width:1.1px;}</style></defs><g id="Capa_2" data-name="Capa 2"><g id="Capa_1-2" data-name="Capa 1"><line class="cls-1" y1="5" x2="66.04" y2="5"/><line class="cls-1" x1="0.2" y1="46.97" x2="66.24" y2="46.97"/><path class="cls-1" d="M66,5c10.08,0,18.26,9.39,18.26,21S76.06,47,66,47"/><line class="cls-1" y1="58.03" x2="66.04" y2="58.03"/><line class="cls-1" x1="0.2" y1="100" x2="66.24" y2="100"/><path class="cls-1" d="M66,58c10.08,0,18.26,9.4,18.26,21S76.06,100,66,100"/><path d="M132.57,105q-10.42,0-16.65-4.07A22.23,22.23,0,0,1,107,89.3a53.25,53.25,0,0,1-2.67-17.73v-39a50.05,50.05,0,0,1,2.73-17.48A21.75,21.75,0,0,1,116,3.88Q122.15,0,132.57,0t16.52,3.94a22.24,22.24,0,0,1,8.84,11.19,49.45,49.45,0,0,1,2.73,17.41V71.69a51.26,51.26,0,0,1-2.73,17.55,23.14,23.14,0,0,1-8.84,11.63Q143,105,132.57,105Zm0-11.31q5.72,0,8.64-2.36a11.61,11.61,0,0,0,3.94-6.61,43.08,43.08,0,0,0,1-10V29.62a41.53,41.53,0,0,0-1-9.85,11,11,0,0,0-3.94-6.36q-2.93-2.22-8.64-2.22t-8.71,2.22a10.78,10.78,0,0,0-4,6.36,41.53,41.53,0,0,0-1,9.85V74.75a43.08,43.08,0,0,0,1,10,11.42,11.42,0,0,0,4,6.61Q126.85,93.69,132.57,93.69Z"/><path d="M201.08,105q-10.43,0-16.65-4.07a22.28,22.28,0,0,1-8.9-11.63,53.25,53.25,0,0,1-2.67-17.73v-39a49.81,49.81,0,0,1,2.74-17.48,21.73,21.73,0,0,1,8.89-11.18Q190.65,0,201.08,0t16.53,3.94a22.22,22.22,0,0,1,8.83,11.19,49.44,49.44,0,0,1,2.74,17.41V71.69a51.25,51.25,0,0,1-2.74,17.55,23.13,23.13,0,0,1-8.83,11.63Q211.51,105,201.08,105Zm0-11.31q5.73,0,8.65-2.36a11.61,11.61,0,0,0,3.94-6.61,43.08,43.08,0,0,0,1-10V29.62a41.53,41.53,0,0,0-1-9.85,11,11,0,0,0-3.94-6.36q-2.92-2.22-8.65-2.22t-8.7,2.22a10.8,10.8,0,0,0-4,6.36,41.53,41.53,0,0,0-1,9.85V74.75a43.08,43.08,0,0,0,1,10,11.44,11.44,0,0,0,4,6.61Q195.37,93.69,201.08,93.69Z"/><path d="M243.28,103.86V.89h14.37V49.45L281.29.89h13.35L274.3,46.27,298,103.86H284l-19.7-48.31-6.61,12v36.36Z"/><path d="M132.51,184.27V118.51h6.25l18.67,43.68V118.51h7.63v65.76h-5.84l-18.92-44.9v44.9Z"/><path d="M192.18,185q-6.66,0-10.64-2.6a14.19,14.19,0,0,1-5.68-7.43,33.91,33.91,0,0,1-1.71-11.32V138.72a31.74,31.74,0,0,1,1.75-11.16,13.91,13.91,0,0,1,5.68-7.14q3.94-2.48,10.6-2.48t10.55,2.52a14.14,14.14,0,0,1,5.64,7.14,31.43,31.43,0,0,1,1.75,11.12v25a32.52,32.52,0,0,1-1.75,11.2,14.79,14.79,0,0,1-5.64,7.43Q198.83,185,192.18,185Zm0-7.23a8.69,8.69,0,0,0,5.52-1.5,7.43,7.43,0,0,0,2.51-4.22,27.27,27.27,0,0,0,.65-6.37V136.86a26.3,26.3,0,0,0-.65-6.3,7,7,0,0,0-2.51-4.06,9.1,9.1,0,0,0-5.52-1.42,9.25,9.25,0,0,0-5.56,1.42,6.88,6.88,0,0,0-2.56,4.06,26.3,26.3,0,0,0-.65,6.3v28.82a27.27,27.27,0,0,0,.65,6.37,7.29,7.29,0,0,0,2.56,4.22A8.84,8.84,0,0,0,192.18,177.77Z"/><path d="M235.93,185q-6.66,0-10.63-2.6a14.19,14.19,0,0,1-5.68-7.43,33.91,33.91,0,0,1-1.71-11.32V138.72a31.74,31.74,0,0,1,1.75-11.16,13.86,13.86,0,0,1,5.68-7.14q3.93-2.48,10.59-2.48t10.56,2.52a14.14,14.14,0,0,1,5.64,7.14,31.67,31.67,0,0,1,1.74,11.12v25a32.77,32.77,0,0,1-1.74,11.2,14.79,14.79,0,0,1-5.64,7.43Q242.59,185,235.93,185Zm0-7.23a8.65,8.65,0,0,0,5.52-1.5,7.39,7.39,0,0,0,2.52-4.22,27.82,27.82,0,0,0,.65-6.37V136.86a26.82,26.82,0,0,0-.65-6.3,7,7,0,0,0-2.52-4.06,9.05,9.05,0,0,0-5.52-1.42,9.27,9.27,0,0,0-5.56,1.42,7,7,0,0,0-2.56,4.06,26.86,26.86,0,0,0-.64,6.3v28.82a27.86,27.86,0,0,0,.64,6.37,7.39,7.39,0,0,0,2.56,4.22A8.85,8.85,0,0,0,235.93,177.77Z"/><path d="M262.88,184.27V118.51h9.18v31l15.1-31h8.52l-13,29,15.1,36.78h-8.93l-12.58-30.85-4.22,7.63v23.22Z"/><line class="cls-2" x1="0.2" y1="14.23" x2="65.52" y2="14.23"/><line class="cls-3" x1="0.2" y1="19.73" x2="71.05" y2="19.73"/><line class="cls-2" x1="0.2" y1="25.73" x2="73.82" y2="25.73"/><line class="cls-3" x1="0.2" y1="31.73" x2="71.05" y2="31.73"/><line class="cls-2" x1="0.2" y1="37.73" x2="65.52" y2="37.73"/><line class="cls-2" x1="0.2" y1="67.27" x2="65.52" y2="67.27"/><line class="cls-3" x1="0.2" y1="72.77" x2="71.05" y2="72.77"/><line class="cls-2" x1="0.2" y1="78.77" x2="73.82" y2="78.77"/><line class="cls-3" x1="0.2" y1="84.77" x2="71.05" y2="84.77"/><line class="cls-2" x1="0.2" y1="90.77" x2="65.52" y2="90.77"/></g></g></svg>