<svg width="39" height="45" viewBox="0 0 39 45" fill="none" xmlns="http://www.w3.org/2000/svg">
<path d="M28.5 6V13.5C28.5 15.8869 27.5518 18.1761 25.864 19.864C24.1761 21.5518 21.887 22.5 19.5 22.5C17.1131 22.5 14.8239 21.5518 13.136 19.864C11.4482 18.1761 10.5 15.8869 10.5 13.5V6M1.5 4.5V40.5C1.5 41.2957 1.81607 42.0587 2.37868 42.6213C2.94129 43.1839 3.70435 43.5 4.5 43.5H34.5C35.2957 43.5 36.0587 43.1839 36.6213 42.6213C37.1839 42.0587 37.5 41.2957 37.5 40.5V4.5C37.5 3.70435 37.1839 2.94129 36.6213 2.37868C36.0587 1.81607 35.2957 1.5 34.5 1.5H4.5C3.70435 1.5 2.94129 1.81607 2.37868 2.37868C1.81607 2.94129 1.5 3.70435 1.5 4.5Z" stroke="black" stroke-width="2.5"/>
</svg>
