<svg width="45" height="45" viewBox="0 0 45 45" fill="none" xmlns="http://www.w3.org/2000/svg">
<path d="M22.5 0C18.0499 0 13.6998 1.3196 9.99968 3.79193C6.29957 6.26426 3.41569 9.77828 1.71272 13.8896C0.00974851 18.001 -0.435826 22.525 0.432341 26.8895C1.30051 31.2541 3.44342 35.2632 6.59011 38.4099C9.73679 41.5566 13.7459 43.6995 18.1105 44.5677C22.475 45.4358 26.999 44.9903 31.1104 43.2873C35.2217 41.5843 38.7357 38.7004 41.2081 35.0003C43.6804 31.3002 45 26.9501 45 22.5C44.993 16.5348 42.6202 10.8159 38.4022 6.59783C34.1841 2.37978 28.4652 0.00700555 22.5 0ZM10.0235 37.9412C11.3179 35.7888 13.1471 34.0079 15.3333 32.7716C17.5195 31.5352 19.9884 30.8855 22.5 30.8855C25.0116 30.8855 27.4805 31.5352 29.6667 32.7716C31.8529 34.0079 33.6821 35.7888 34.9765 37.9412C31.4479 40.8025 27.043 42.3641 22.5 42.3641C17.9571 42.3641 13.5521 40.8025 10.0235 37.9412ZM15 20.7353C15 19.2519 15.4399 17.8019 16.264 16.5685C17.0881 15.3351 18.2594 14.3739 19.6299 13.8062C21.0003 13.2385 22.5083 13.09 23.9632 13.3794C25.418 13.6688 26.7544 14.3831 27.8033 15.432C28.8522 16.4809 29.5665 17.8173 29.8559 19.2721C30.1453 20.727 29.9968 22.235 29.4291 23.6054C28.8614 24.9759 27.9002 26.1472 26.6668 26.9713C25.4334 27.7954 23.9834 28.2353 22.5 28.2353C20.5109 28.2353 18.6032 27.4451 17.1967 26.0386C15.7902 24.6321 15 22.7244 15 20.7353ZM36.9507 36.0971C34.8712 32.8635 31.7628 30.425 28.1272 29.175C29.9401 27.9675 31.3163 26.2088 32.0523 24.1587C32.7884 22.1087 32.8453 19.8762 32.2145 17.7913C31.5837 15.7065 30.2988 13.88 28.5498 12.5818C26.8007 11.2836 24.6804 10.5827 22.5022 10.5827C20.324 10.5827 18.2037 11.2836 16.4546 12.5818C14.7056 13.88 13.4207 15.7065 12.7899 17.7913C12.1592 19.8762 12.216 22.1087 12.9521 24.1587C13.6881 26.2088 15.0644 27.9675 16.8772 29.175C13.2416 30.425 10.1332 32.8635 8.05368 36.0971C5.39522 33.2759 3.6208 29.7382 2.94936 25.9204C2.27793 22.1027 2.73884 18.1718 4.27524 14.6129C5.81164 11.054 8.35631 8.02278 11.5953 5.89316C14.8343 3.76353 18.6258 2.62871 22.5022 2.62871C26.3786 2.62871 30.1702 3.76353 33.4091 5.89316C36.6481 8.02278 39.1928 11.054 40.7292 14.6129C42.2656 18.1718 42.7265 22.1027 42.0551 25.9204C41.3836 29.7382 39.6092 33.2759 36.9507 36.0971Z" fill="black"/>
</svg>
