<svg width="45" height="33" viewBox="0 0 45 33" fill="none" xmlns="http://www.w3.org/2000/svg">
<path d="M34.7727 29.6591C33.959 29.6591 33.1786 29.3358 32.6032 28.7604C32.0278 28.185 31.7045 27.4046 31.7045 26.5909C31.7045 25.7772 32.0278 24.9968 32.6032 24.4214C33.1786 23.846 33.959 23.5227 34.7727 23.5227C35.5865 23.5227 36.3669 23.846 36.9423 24.4214C37.5177 24.9968 37.8409 25.7772 37.8409 26.5909C37.8409 27.4046 37.5177 28.185 36.9423 28.7604C36.3669 29.3358 35.5865 29.6591 34.7727 29.6591ZM37.8409 11.25L41.85 16.3636H32.7273V11.25M10.2273 29.6591C9.41354 29.6591 8.63314 29.3358 8.05774 28.7604C7.48234 28.185 7.15909 27.4046 7.15909 26.5909C7.15909 25.7772 7.48234 24.9968 8.05774 24.4214C8.63314 23.846 9.41354 23.5227 10.2273 23.5227C11.041 23.5227 11.8214 23.846 12.3968 24.4214C12.9722 24.9968 13.2955 25.7772 13.2955 26.5909C13.2955 27.4046 12.9722 28.185 12.3968 28.7604C11.8214 29.3358 11.041 29.6591 10.2273 29.6591ZM38.8636 8.18182H32.7273V0H4.09091C1.82045 0 0 1.82045 0 4.09091V26.5909H4.09091C4.09091 28.2184 4.73742 29.7792 5.88821 30.93C7.039 32.0808 8.59981 32.7273 10.2273 32.7273C11.8547 32.7273 13.4155 32.0808 14.5663 30.93C15.7171 29.7792 16.3636 28.2184 16.3636 26.5909H28.6364C28.6364 28.2184 29.2829 29.7792 30.4337 30.93C31.5845 32.0808 33.1453 32.7273 34.7727 32.7273C36.4002 32.7273 37.961 32.0808 39.1118 30.93C40.2626 29.7792 40.9091 28.2184 40.9091 26.5909H45V16.3636L38.8636 8.18182Z" fill="black"/>
</svg>
