<svg width="20" height="20" viewBox="0 0 20 20" fill="none" xmlns="http://www.w3.org/2000/svg">
<path d="M19.8458 19.101C19.9445 19.1998 20 19.3337 20 19.4734C20 19.6131 19.9445 19.747 19.8458 19.8458C19.747 19.9445 19.6131 20 19.4734 20C19.3337 20 19.1998 19.9445 19.101 19.8458L10 10.7447L0.898951 19.8458C0.800195 19.9445 0.666254 20 0.526593 20C0.386932 20 0.252991 19.9445 0.154236 19.8458C0.0554804 19.747 2.75305e-09 19.6131 0 19.4734C-2.75305e-09 19.3337 0.0554799 19.1998 0.154235 19.101L9.25528 10L0.154235 0.898951C0.0554799 0.800195 0 0.666254 0 0.526593C0 0.386932 0.0554799 0.252991 0.154235 0.154235C0.252991 0.0554799 0.386932 0 0.526593 0C0.666254 0 0.800195 0.0554799 0.898951 0.154235L10 9.25528L19.101 0.154235C19.1499 0.105337 19.208 0.066548 19.2719 0.0400843C19.3358 0.0136205 19.4043 1.36317e-09 19.4734 0C19.5426 -1.36317e-09 19.611 0.0136205 19.6749 0.0400843C19.7388 0.066548 19.7969 0.105337 19.8458 0.154235C19.8947 0.203134 19.9335 0.261185 19.9599 0.325074C19.9864 0.388964 20 0.45744 20 0.526593C20 0.595746 19.9864 0.664222 19.9599 0.728112C19.9335 0.792001 19.8947 0.850052 19.8458 0.898951L10.7447 10L19.8458 19.101Z" fill="#FF0000"/>
</svg>
