<svg width="25" height="24" viewBox="0 0 25 24" fill="none" xmlns="http://www.w3.org/2000/svg">
<path d="M7.29077 20.2911L12.5008 17.1485L17.7109 20.3325L16.3463 14.3781L20.9362 10.4085L14.8991 9.87099L12.5008 4.24744L10.1025 9.82964L4.0655 10.3672L8.65531 14.3781L7.29077 20.2911ZM4.76844 23.7612L6.81938 14.9735L0 9.0655L8.9828 8.28812L12.5008 0L16.0189 8.28647L25 9.06384L18.1823 14.9719L20.2332 23.7595L12.5008 19.0953L4.76844 23.7612Z" fill="black"/>
  <polygon points="12.5 17.15 7.29 20.29 8.66 14.38 4.07 10.37 10.1 9.83 12.5 4.25 14.9 9.87 20.94 10.41 16.35 14.38 17.71 20.33 12.5 17.15"/>
</svg>
