<svg width="40" height="40" viewBox="0 0 40 40" fill="none" xmlns="http://www.w3.org/2000/svg">
<path d="M20 0C8.99999 0 0 8.97999 0 20.04C0 30.04 7.31999 38.3399 16.88 39.8399V25.84H11.8V20.04H16.88V15.62C16.88 10.6 19.86 7.83999 24.44 7.83999C26.62 7.83999 28.9 8.21999 28.9 8.21999V13.16H26.38C23.9 13.16 23.12 14.7 23.12 16.28V20.04H28.68L27.78 25.84H23.12V39.8399C27.8329 39.0956 32.1244 36.691 35.2198 33.0601C38.3153 29.4292 40.0107 24.8113 40 20.04C40 8.97999 31 0 20 0Z" fill="black"/>
</svg>
