<svg width="44" height="44" viewBox="0 0 44 44" fill="none" xmlns="http://www.w3.org/2000/svg">
<path d="M42 42H2M38 42V20M6 42V20" stroke="black" stroke-width="4" stroke-linecap="round"/>
<path d="M31.0561 2H12.9441C10.5381 2 9.33614 2 8.37014 2.598C7.40214 3.194 6.86414 4.27 5.79014 6.422L2.98014 13.52C2.33214 15.16 1.76414 17.092 2.85614 18.478C3.37057 19.132 4.07618 19.6094 4.87468 19.8435C5.67318 20.0776 6.52482 20.0569 7.31098 19.7842C8.09715 19.5115 8.7787 19.0004 9.26071 18.3221C9.74272 17.6438 10.0012 16.8321 10.0001 16C10.0001 17.0609 10.4216 18.0783 11.1717 18.8284C11.9219 19.5786 12.9393 20 14.0001 20C15.061 20 16.0784 19.5786 16.8286 18.8284C17.5787 18.0783 18.0001 17.0609 18.0001 16C18.0001 17.0609 18.4216 18.0783 19.1717 18.8284C19.9219 19.5786 20.9393 20 22.0001 20C23.061 20 24.0784 19.5786 24.8286 18.8284C25.5787 18.0783 26.0001 17.0609 26.0001 16C26.0001 17.0609 26.4216 18.0783 27.1717 18.8284C27.9219 19.5786 28.9393 20 30.0001 20C31.061 20 32.0784 19.5786 32.8286 18.8284C33.5787 18.0783 34.0001 17.0609 34.0001 16C34 16.8315 34.259 17.6423 34.7411 18.3197C35.2231 18.9972 35.9043 19.5075 36.6899 19.7799C37.4755 20.0522 38.3264 20.073 39.1244 19.8393C39.9223 19.6056 40.6276 19.1291 41.1421 18.476C42.2341 17.09 41.6661 15.158 41.0181 13.518L38.2101 6.422C37.1361 4.27 36.5981 3.194 35.6301 2.598C34.6641 2 33.4621 2 31.0561 2Z" stroke="black" stroke-width="4" stroke-linejoin="round"/>
<path d="M17 41V35C17 33.13 17 32.196 17.402 31.5C17.6653 31.044 18.044 30.6653 18.5 30.402C19.196 30 20.13 30 22 30C23.87 30 24.804 30 25.5 30.402C25.956 30.6653 26.3347 31.044 26.598 31.5C27 32.196 27 33.13 27 35V41" stroke="black" stroke-width="4" stroke-linecap="round"/>
</svg>
