<svg width="40" height="41" viewBox="0 0 40 41" fill="none" xmlns="http://www.w3.org/2000/svg">
<path d="M20.0804 0.000119738C9.10553 0.000119738 0.160804 8.94484 0.160804 19.9197C0.160804 23.4373 1.08543 26.8544 2.81407 29.8695L0 40.2011L10.5528 37.4273C13.4673 39.0152 16.7437 39.8594 20.0804 39.8594C31.0553 39.8594 40 30.9147 40 19.9398C40 14.6132 37.9296 9.60816 34.1709 5.84937C32.328 3.98791 30.133 2.51201 27.7138 1.50776C25.2947 0.503505 22.6997 -0.00900526 20.0804 0.000119738ZM20.1005 3.3569C24.5226 3.3569 28.6633 5.08555 31.799 8.22122C33.3379 9.75962 34.558 11.5867 35.3893 13.5976C36.2205 15.6086 36.6467 17.7638 36.6432 19.9398C36.6432 29.0654 29.206 36.4825 20.0804 36.4825C17.1055 36.4825 14.191 35.6986 11.6583 34.171L11.0553 33.8293L4.78392 35.4775L6.45226 29.367L6.05025 28.7237C4.38983 26.0879 3.51158 23.0349 3.51759 19.9197C3.53769 10.7941 10.9548 3.3569 20.1005 3.3569ZM13.0251 10.7137C12.7035 10.7137 12.1608 10.8343 11.6985 11.3368C11.2563 11.8393 9.94975 13.0654 9.94975 15.4976C9.94975 17.9499 11.7387 20.3016 11.9598 20.6433C12.2412 20.985 15.4975 26.0102 20.5025 28.1408C21.6884 28.6835 22.6131 28.985 23.3367 29.2061C24.5226 29.5881 25.608 29.5278 26.4724 29.4072C27.4372 29.2664 29.407 28.2011 29.8291 27.0353C30.2513 25.8695 30.2513 24.8845 30.1307 24.6634C29.9899 24.4624 29.6683 24.3418 29.1658 24.1207C28.6633 23.8393 26.2111 22.6333 25.7688 22.4725C25.3065 22.3117 25.0251 22.2313 24.6432 22.7137C24.3216 23.2162 23.3568 24.3418 23.0754 24.6634C22.7739 25.0051 22.4925 25.0453 22.01 24.8041C21.4874 24.5428 19.8794 24.0202 17.9899 22.3318C16.5025 21.0051 15.5176 19.377 15.2161 18.8745C14.9749 18.3921 15.196 18.0906 15.4372 17.8695C15.6583 17.6484 15.9799 17.2865 16.1809 16.985C16.4422 16.7036 16.5226 16.4825 16.6834 16.1609C16.8442 15.8192 16.7638 15.5378 16.6432 15.2966C16.5226 15.0755 15.5176 12.583 15.0955 11.5981C14.6935 10.6333 14.2915 10.7539 13.9698 10.7338C13.6884 10.7338 13.3668 10.7137 13.0251 10.7137Z" fill="black"/>
</svg>
